PathFileType  4	(X/Y/Z) C:\Inversekin\DARPA\DARPA11\Files_W_HJCs\
DataRate	CameraRate	NumFrames	NumMarkers	Units	OrigDataRate	OrigDataStartFrame	OrigNumFrames
  100.0		  100.0		    6		     41		 mm	  100.0	      30	    238
Frame#	Time	R.Shoulder			L.Shoulder			R.Clavicle			L.Clavicle			R.Biceps			R.Elbow			R.Forearm			R.Wrist			L.Biceps			L.Elbow			L.Forearm			L.Wrist			R.ASIS			L.ASIS			R.PSIS			S2			L.PSIS			R.TH1			R.TH2			R.TH3			R.Knee			R.SH1			R.SH2			R.SH3			R.SH4			R.Ankle			R.Heel			R.MT5			R.Toe			L.TH1			L.TH2			L.TH3			L.TH4			L.Knee			L.SH1			L.SH2			L.SH3			L.Ankle			L.Heel			L.MT5			L.Toe			
		X1	Y1	Z1	X2	Y2	Z2	X3	Y3	Z3	X4	Y4	Z4	X5	Y5	Z5	X6	Y6	Z6	X7	Y7	Z7	X8	Y8	Z8	X9	Y9	Z9	X10	Y10	Z10	X11	Y11	Z11	X12	Y12	Z12	X13	Y13	Z13	X14	Y14	Z14	X15	Y15	Z15	X16	Y16	Z16	X17	Y17	Z17	X18	Y18	Z18	X19	Y19	Z19	X20	Y20	Z20	X21	Y21	Z21	X22	Y22	Z22	X23	Y23	Z23	X24	Y24	Z24	X25	Y25	Z25	X26	Y26	Z26	X27	Y27	Z27	X28	Y28	Z28	X29	Y29	Z29	X30	Y30	Z30	X31	Y31	Z31	X32	Y32	Z32	X33	Y33	Z33	X34	Y34	Z34	X35	Y35	Z35	X36	Y36	Z36	X37	Y37	Z37	X38	Y38	Z38	X39	Y39	Z39	X40	Y40	Z40	X41	Y41	Z41	

30	0.29000	-292.827	1492.415	-78.433	-253.447	1511.572	-419.272	-217.335	1455.154	-218.931	-208.546	1457.964	-268.403	-304.353	1231.604	5.575	-368.098	1150.858	30.893	-295.253	1023.509	64.473	-260.895	906.638	82.936	-207.106	1291.741	-503.120	-202.884	1169.137	-535.914	-83.009	1094.513	-502.065	0.847	1029.829	-462.580	-195.428	992.024	-132.341	-210.251	979.250	-386.154	-409.554	994.632	-192.736	-422.584	975.073	-237.232	-412.440	999.083	-283.575	-161.685	780.459	-53.389	-259.440	731.806	-48.268	-209.273	614.567	-75.653	-112.221	515.843	-104.119	-62.181	436.366	-100.014	-21.864	332.698	-95.486	-138.418	401.714	-100.529	-97.144	289.632	-103.539	34.290	119.322	-127.910	8.064	20.805	-186.445	172.869	95.363	-86.777	252.889	185.021	-174.447	-228.680	749.857	-408.506	-261.671	626.698	-374.193	-320.795	769.758	-457.082	-371.105	653.323	-409.524	-402.372	512.131	-369.317	-414.753	396.371	-352.682	-494.883	441.387	-387.163	-549.761	338.970	-374.773	-589.990	129.741	-335.695	-697.110	65.022	-301.554	-503.248	37.962	-357.458	-408.705	48.575	-247.602
31	0.30000	-279.473	1490.885	-76.659	-239.266	1510.309	-417.434	-203.804	1453.949	-216.932	-195.312	1456.625	-266.322	-290.690	1229.612	6.425	-354.859	1149.008	31.532	-282.595	1021.395	64.953	-248.689	904.034	83.218	-193.851	1290.079	-501.096	-189.886	1167.491	-533.762	-70.436	1092.881	-499.973	13.757	1027.740	-460.659	-180.965	991.092	-130.538	-195.659	978.069	-384.887	-395.414	992.618	-191.931	-408.645	973.324	-236.334	-398.355	997.336	-282.518	-145.416	780.872	-52.890	-242.064	730.925	-47.797	-190.888	614.407	-75.962	-95.554	515.285	-105.687	-48.076	433.447	-101.983	-13.344	326.614	-97.355	-125.779	401.601	-102.013	-89.205	288.233	-104.959	37.378	116.027	-130.280	8.323	20.147	-186.516	177.515	89.028	-89.545	260.145	174.428	-179.163	-215.240	748.840	-407.930	-248.231	625.432	-373.882	-307.642	768.715	-456.423	-357.857	652.358	-409.173	-389.884	511.086	-369.586	-404.577	395.248	-353.184	-483.927	442.268	-387.685	-542.104	342.005	-376.061	-587.006	132.741	-336.934	-695.354	70.083	-302.094	-502.917	37.883	-357.803	-408.755	48.324	-247.373
32	0.31000	-266.253	1489.581	-74.773	-224.791	1509.258	-415.377	-189.940	1452.760	-215.032	-181.133	1455.514	-264.312	-276.787	1228.129	7.343	-341.533	1147.400	32.202	-269.650	1019.305	65.356	-236.077	901.903	83.441	-180.626	1288.828	-499.126	-177.177	1166.065	-531.634	-57.763	1090.804	-498.061	25.775	1025.666	-458.762	-165.951	990.880	-128.762	-181.286	976.824	-383.719	-380.989	990.672	-191.009	-394.530	971.238	-235.445	-384.282	995.717	-281.416	-128.361	780.669	-52.945	-224.866	729.978	-47.211	-172.848	613.792	-76.561	-79.186	514.552	-107.356	-35.267	430.349	-103.888	-4.165	322.362	-100.042	-113.725	401.118	-103.425	-81.200	286.690	-106.347	41.557	113.026	-132.987	9.327	19.689	-187.278	181.635	83.094	-91.898	265.151	164.140	-183.285	-202.050	747.675	-407.749	-234.720	624.441	-373.586	-293.872	767.804	-455.858	-344.224	651.237	-408.819	-376.780	510.109	-369.872	-394.417	394.045	-353.964	-471.841	443.493	-389.333	-533.433	344.751	-376.575	-583.554	136.445	-337.976	-693.606	76.502	-302.529	-502.627	37.814	-358.016	-408.809	48.198	-247.206
33	0.32000	-252.898	1488.573	-72.678	-210.859	1508.520	-413.161	-176.214	1451.926	-212.674	-167.174	1454.876	-262.004	-263.300	1226.669	8.292	-328.017	1145.881	32.858	-256.673	1017.480	65.810	-223.369	899.901	83.565	-167.262	1287.839	-496.990	-164.733	1164.940	-529.410	-46.019	1088.960	-496.240	37.607	1023.286	-457.450	-151.286	990.722	-127.139	-166.671	975.767	-382.504	-366.649	989.184	-189.993	-379.838	969.443	-234.347	-369.824	993.958	-280.335	-111.642	780.013	-53.328	-208.101	728.841	-46.259	-156.296	613.214	-77.257	-64.204	513.948	-108.632	-23.195	428.480	-105.420	6.097	320.023	-102.399	-102.210	400.268	-104.568	-70.807	284.886	-107.920	48.784	111.738	-134.943	10.242	22.285	-187.892	186.109	76.961	-93.850	273.334	154.020	-186.045	-187.562	746.849	-407.409	-220.153	623.468	-373.448	-280.101	766.991	-455.122	-330.037	650.322	-408.281	-361.382	510.119	-370.866	-382.856	392.852	-354.740	-459.263	444.385	-389.587	-523.143	347.153	-377.122	-579.480	140.245	-339.324	-690.993	83.568	-303.062	-502.227	37.784	-358.293	-408.757	48.053	-247.137
34	0.33000	-239.366	1487.840	-70.395	-196.769	1508.174	-411.023	-162.096	1451.672	-210.489	-153.200	1454.730	-259.870	-249.390	1225.542	9.480	-314.517	1144.674	33.485	-243.084	1016.167	66.245	-210.394	898.106	83.553	-154.210	1287.363	-495.022	-152.354	1164.152	-527.228	-34.199	1087.182	-494.780	48.954	1020.406	-456.138	-135.834	990.815	-125.727	-151.646	975.260	-381.140	-352.021	988.731	-188.782	-365.179	968.635	-233.043	-355.142	992.963	-279.107	-95.937	779.107	-53.564	-192.678	728.333	-45.002	-141.876	612.573	-78.042	-51.622	512.826	-108.877	-10.623	427.762	-105.971	18.500	319.211	-103.322	-90.162	399.822	-105.450	-58.869	284.454	-109.232	58.061	111.051	-135.081	12.681	25.083	-188.405	190.596	71.101	-95.672	283.401	140.831	-189.341	-172.867	746.579	-407.192	-205.062	623.156	-373.321	-265.690	766.610	-454.343	-315.041	649.661	-407.844	-348.019	507.278	-371.389	-370.844	391.930	-355.828	-446.598	446.426	-389.321	-511.716	349.825	-376.922	-574.183	144.489	-340.442	-687.721	92.059	-303.485	-501.690	37.959	-358.630	-408.703	47.967	-247.152
35	0.34000	-225.569	1487.573	-68.099	-183.314	1508.430	-408.886	-148.271	1451.897	-208.244	-139.456	1454.829	-257.641	-235.755	1224.806	10.879	-300.403	1143.670	34.164	-229.966	1015.033	66.611	-196.948	896.941	83.473	-141.394	1287.371	-492.888	-140.546	1163.901	-524.857	-22.943	1085.496	-493.370	59.630	1017.784	-455.214	-120.346	990.894	-124.760	-136.893	975.071	-380.129	-336.676	988.933	-187.360	-350.191	968.562	-231.555	-340.347	992.390	-277.908	-80.417	778.171	-53.730	-177.488	727.607	-44.597	-129.004	612.116	-78.861	-40.133	512.374	-108.028	2.754	427.404	-105.906	30.876	318.928	-102.914	-76.351	400.121	-105.363	-46.915	284.865	-109.278	66.671	109.588	-134.490	15.059	26.612	-188.188	195.493	64.298	-97.221	290.235	128.252	-191.800	-157.057	746.727	-406.669	-188.917	622.679	-373.524	-250.427	766.532	-453.446	-298.996	648.884	-407.544	-331.367	507.075	-371.574	-357.348	391.264	-357.449	-432.527	448.032	-389.625	-500.667	354.122	-377.819	-568.221	149.565	-341.748	-683.598	101.900	-303.562	-500.728	38.429	-358.997	-408.659	47.929	-247.278
